# xmcd
# 
# Track frame offsets:
#     150
#     18972
#     43292
#     60265
#     75397
#     95485
#     111627
#     133270
#     144882
#     162560
# 
# Disc length: 2394
# 
# Revision: 4
# Processed by: cddbd v1.5.2PL0 Copyright (c) Steve Scherf et al.
# Submitted via: fre:ac v1.0.31
# 
DISCID=8409580a
DTITLE=Johnny Winter - Folha Soul and Blues
DYEAR=2015
DGENRE=Blues
TTITLE0=It's My Life, Baby
TTITLE1=Don't Take Advantage Of Me
TTITLE2=Iodine In My Coffee
TTITLE3=Trick Bag
TTITLE4=Mad Dog
TTITLE5=Boot Hill
TTITLE6=I Smell Trouble
TTITLE7=Lights Out
TTITLE8=Kiss Tomorrow Goodbye
TTITLE9=My Soul
EXTD=
EXTT0=
EXTT1=
EXTT2=
EXTT3=
EXTT4=
EXTT5=
EXTT6=
EXTT7=
EXTT8=
EXTT9=
PLAYORDER=
